<svg width="32" height="32" viewBox="0 0 32 32" fill="none" xmlns="http://www.w3.org/2000/svg">
<path d="M7.39764 9.90732C7.11176 8.84039 7.74492 7.74371 8.81186 7.45783L19.7848 4.51764C20.8517 4.23176 21.9484 4.86492 22.2343 5.93186L25.1744 16.9048C25.4603 17.9717 24.8272 19.0684 23.7602 19.3543L12.7873 22.2944C11.7204 22.5803 10.6237 21.9472 10.3378 20.8802L7.39764 9.90732Z" fill="white"/>
<path d="M7.84 27.04C7.84 26.5098 8.26981 26.08 8.8 26.08H27.04C27.5702 26.08 28 26.5098 28 27.04C28 27.5702 27.5702 28 27.04 28H8.8C8.26981 28 7.84 27.5702 7.84 27.04Z" fill="white"/>
<path d="M4 27.04C4 26.5098 4.42981 26.08 4.96 26.08C5.49019 26.08 5.92 26.5098 5.92 27.04C5.92 27.5702 5.49019 28 4.96 28C4.42981 28 4 27.5702 4 27.04Z" fill="white"/>
</svg>
