<svg width="32" height="32" viewBox="0 0 32 32" fill="none" xmlns="http://www.w3.org/2000/svg">
<path fill-rule="evenodd" clip-rule="evenodd" d="M13 3H3L3 13H13V3ZM3 1C1.89543 1 1 1.89543 1 3V13C1 14.1046 1.89543 15 3 15H13C14.1046 15 15 14.1046 15 13V3C15 1.89543 14.1046 1 13 1H3Z" fill="white"/>
<path fill-rule="evenodd" clip-rule="evenodd" d="M24.1667 6L20.5582 12.25H27.7751L24.1667 6ZM25.0327 3.5C24.6478 2.83333 23.6855 2.83333 23.3006 3.5L17.9601 12.75C17.5752 13.4167 18.0564 14.25 18.8262 14.25H29.5072C30.277 14.25 30.7581 13.4167 30.3732 12.75L25.0327 3.5Z" fill="white"/>
<path d="M11.6 24C11.6 25.9882 9.98823 27.6 8 27.6C6.01178 27.6 4.4 25.9882 4.4 24C4.4 22.0118 6.01178 20.4 8 20.4C9.98823 20.4 11.6 22.0118 11.6 24Z" fill="white"/>
<path d="M14 24C14 27.3137 11.3137 30 8 30C4.68629 30 2 27.3137 2 24C2 20.6863 4.68629 18 8 18C11.3137 18 14 20.6863 14 24ZM2.9 24C2.9 26.8167 5.18335 29.1 8 29.1C10.8167 29.1 13.1 26.8167 13.1 24C13.1 21.1833 10.8167 18.9 8 18.9C5.18335 18.9 2.9 21.1833 2.9 24Z" fill="white"/>
<path d="M20 19C20 18.4477 20.4477 18 21 18H27C27.5523 18 28 18.4477 28 19C28 19.5523 27.5523 20 27 20H21C20.4477 20 20 19.5523 20 19Z" fill="white"/>
<path fill-rule="evenodd" clip-rule="evenodd" d="M24 29C26.2091 29 28 27.2091 28 25C28 22.7909 26.2091 21 24 21C21.7909 21 20 22.7909 20 25C20 27.2091 21.7909 29 24 29ZM23 24C22.4477 24 22 24.4477 22 25C22 25.5523 22.4477 26 23 26H25C25.5523 26 26 25.5523 26 25C26 24.4477 25.5523 24 25 24H23Z" fill="white"/>
</svg>
