<svg width="32" height="32" viewBox="0 0 32 32" fill="none" xmlns="http://www.w3.org/2000/svg">
<path d="M9.91406 15.9883L15.2266 21.3008C15.5937 21.668 15.5937 22.2617 15.2266 22.625L14.3437 23.5078C13.9766 23.875 13.3828 23.875 13.0195 23.5078L9.25 19.7461L5.48438 23.5117C5.11719 23.8789 4.52344 23.8789 4.16016 23.5117L3.27344 22.6289C2.90625 22.2617 2.90625 21.668 3.27344 21.3047L8.58594 15.9922C8.95312 15.6211 9.54688 15.6211 9.91406 15.9883ZM8.58594 8.48828L3.27344 13.8008C2.90625 14.168 2.90625 14.7617 3.27344 15.125L4.15625 16.0078C4.52344 16.375 5.11719 16.375 5.48047 16.0078L9.24609 12.2422L13.0117 16.0078C13.3789 16.375 13.9727 16.375 14.3359 16.0078L15.2187 15.125C15.5859 14.7578 15.5859 14.1641 15.2187 13.8008L9.90625 8.48828C9.54688 8.12109 8.95312 8.12109 8.58594 8.48828Z" fill="white"/>
<path d="M21.0859 16.0117L15.7734 10.6992C15.4063 10.332 15.4063 9.73828 15.7734 9.375L16.6563 8.49219C17.0234 8.125 17.6172 8.125 17.9805 8.49219L21.75 12.2539L25.5156 8.48829C25.8828 8.1211 26.4766 8.1211 26.8398 8.48829L27.7266 9.3711C28.0938 9.73829 28.0938 10.332 27.7266 10.6953L22.4141 16.0078C22.0469 16.3789 21.4531 16.3789 21.0859 16.0117ZM22.4141 23.5117L27.7266 18.1992C28.0938 17.832 28.0937 17.2383 27.7266 16.875L26.8438 15.9922C26.4766 15.625 25.8828 15.625 25.5195 15.9922L21.7539 19.7578L17.9883 15.9922C17.6211 15.625 17.0273 15.625 16.6641 15.9922L15.7813 16.875C15.4141 17.2422 15.4141 17.8359 15.7813 18.1992L21.0938 23.5117C21.4531 23.8789 22.0469 23.8789 22.4141 23.5117Z" fill="white"/>
</svg>
